####
#
# OBJ File Generated by Meshlab
#
####
# Object growth_mesh1.obj
#
# Vertices: 116
# Faces: 201
#
####
vn -2.459948 -0.684057 2.660762
v -17.498550 -0.948255 50.170380
vn -2.650156 -1.146394 5.457861
v -5.419230 -8.831775 57.853527
vn 2.107838 1.778213 5.641477
v 7.542428 7.404785 53.844273
vn 0.150479 1.033358 5.701284
v -0.343964 -2.742840 59.808582
vn -2.233061 -2.911099 4.892631
v -4.240237 -11.235981 57.556477
vn 0.223155 2.542386 5.528811
v -0.779809 16.837624 53.021023
vn -0.358875 -5.854969 2.158531
v -3.238790 -19.482721 43.724373
vn -2.270293 1.710557 5.599074
v -8.474498 7.326382 53.776134
vn 4.366392 -2.455269 3.586565
v 11.690896 -9.822823 52.821285
vn -1.759907 2.385734 5.537230
v -1.449021 17.452341 52.560009
vn -2.293804 -5.150986 2.566037
v -7.594459 -16.289793 49.553356
vn -1.167649 -1.095214 5.880542
v -0.696788 -9.471062 59.586071
vn 3.836322 -3.688418 3.076861
v 9.751378 -13.088714 52.264763
vn 2.620157 1.940711 5.334528
v 0.344087 7.882292 56.309479
vn -1.477788 -0.045914 2.908889
v -17.034800 2.579941 50.932972
vn 4.143759 -0.824125 4.337302
v 16.725241 -1.573593 50.740536
vn 3.362942 -0.359079 5.171367
v 10.324614 -6.009900 55.212536
vn 2.181786 -1.798800 0.604578
v 12.931892 -16.769697 35.600632
vn 0.697390 -5.422618 2.881199
v 4.941947 -16.256115 51.054138
vn -1.168598 -0.689649 0.289853
v -21.331141 -3.937436 35.476646
vn 0.684704 -4.845934 3.826779
v 1.188585 -12.175611 57.573654
vn -3.449633 -4.777612 1.869460
v -9.650559 -16.921312 45.241703
vn 3.690284 -4.323570 2.413914
v 9.510933 -15.096490 49.494411
vn -2.775518 -1.474964 1.371513
v -18.667509 -3.023245 46.932629
vn 0.029807 -2.648982 4.641777
v -0.214336 -10.973297 59.327023
vn -3.612285 -4.317085 2.523968
v -9.344426 -14.910721 50.157516
vn -4.354543 -2.263410 3.671129
v -11.620625 -9.822781 53.076981
vn 2.596020 -1.562436 0.815140
v 19.172966 -3.911927 44.327202
vn -2.441355 -4.479905 3.422873
v -7.355048 -14.245337 53.151669
vn -1.834628 0.068449 2.223490
v -1.296582 -0.836099 59.700024
vn -2.214887 1.970625 5.536909
v -1.666582 6.278136 56.871281
vn -2.338012 1.417720 5.621272
v -1.555380 2.949707 58.055092
vn 2.620050 -1.073892 5.448637
v 5.386145 -9.191476 57.630257
vn 2.126170 0.295881 5.846043
v 0.487363 -4.906646 59.801857
vn -0.699043 -5.393748 2.952095
v -4.725276 -16.055073 51.509640
vn 1.371394 -0.812801 5.945120
v 0.311053 -8.504090 59.695370
vn 2.163037 -5.212920 2.488587
v 7.395271 -16.629625 49.059597
vn 4.824138 -3.098510 2.415372
v 13.430969 -10.323707 49.442757
vn -2.466893 -0.793601 5.703938
v -0.990650 -6.198008 59.799294
vn -3.964467 -3.447043 3.243879
v -10.288888 -12.111517 52.736538
vn 2.663342 1.119761 5.578768
v 10.251940 -0.070082 54.674229
vn 2.981600 -1.586186 1.542501
v 18.165678 -3.609159 47.381489
vn 0.379960 0.441793 1.516069
v 15.430345 16.157335 48.505478
vn 1.138505 1.951922 5.007352
v -0.279181 7.187054 57.021748
vn -3.149253 0.390856 5.340031
v -1.902417 -4.591103 59.415897
vn 1.130977 -2.704513 0.868924
v 7.597698 -21.257679 35.838139
vn -2.762307 -1.700174 0.692450
v -18.089680 -9.148649 36.146149
vn -3.488729 -1.525042 4.828351
v -9.190956 -9.121590 55.596325
vn 4.487865 -1.796385 3.840825
v 14.064993 -6.071471 51.962471
vn 0.035913 -5.460450 3.087332
v 0.510566 -15.472012 52.416187
vn 1.058601 0.975978 3.210058
v 14.997548 11.934396 49.844540
vn -1.368793 -5.564604 2.247324
v -6.118398 -17.914957 47.081005
vn 0.804312 1.671757 5.718451
v -0.108125 0.854870 58.903656
vn 2.900270 1.434128 5.277411
v 0.217817 4.067743 57.689819
vn -2.766765 0.891617 5.543487
v -7.861810 -1.484376 56.386181
vn -1.705015 0.727288 4.335183
v -1.143047 -4.344328 60.212940
vn -2.295264 1.854185 5.544605
v -1.143406 8.849007 56.178261
vn -5.073178 -2.684899 2.433642
v -17.472979 -4.897402 47.333790
vn 1.995793 -0.014887 2.759632
v 17.284630 -0.249732 50.307995
vn -0.395630 2.280546 5.307777
v -0.814055 14.413493 54.192509
vn 2.173943 2.136976 5.488862
v 0.567838 10.924413 55.068451
vn 2.219666 1.668167 5.629253
v 3.371347 2.997382 56.868778
vn -0.927395 1.029547 2.751436
v -7.837094 18.146847 50.181141
vn 3.090508 -3.072845 4.288711
v 8.094668 -11.960668 54.890835
vn 2.788556 0.879610 5.525374
v 12.658684 2.590846 53.012386
vn 2.434291 1.471293 5.593625
v 8.485888 2.428878 54.951202
vn 1.709059 1.379451 3.961989
v -0.081598 5.257944 57.873482
vn -2.096078 -2.623294 0.878554
v -10.163180 -19.344923 37.049156
vn 2.312107 -3.059406 4.758118
v 5.524314 -11.722386 56.545925
vn -2.691340 -1.567725 0.760102
v -19.712811 -3.609212 42.782200
vn 4.600248 -3.868595 1.694397
v 12.154155 -14.518341 44.946075
vn -0.590671 0.554285 1.777308
v -15.029758 16.084526 48.658611
vn 3.492290 -1.590885 4.814367
v 9.288143 -9.177393 55.383713
vn -2.880252 0.006445 5.509221
v -7.223529 -5.767302 57.192986
vn 1.192158 -0.716330 0.295375
v 21.050278 -4.227565 35.984749
vn 2.569024 0.827936 5.639136
v 7.421702 -1.806574 56.392933
vn -0.006786 2.295670 5.339777
v -0.690358 11.565770 55.355766
vn 0.029813 -5.753243 2.510132
v -0.398363 -18.172701 46.873642
vn 0.116140 -5.947900 2.011194
v 1.642583 -20.661579 40.215267
vn -3.647780 -0.320788 4.966999
v -12.153048 -4.140194 54.189243
vn -1.113605 -4.681672 3.737731
v -4.537098 -13.896900 55.005039
vn 3.555426 -4.729752 1.814744
v 9.716022 -17.075855 44.759411
vn 0.006283 1.095659 2.575910
v -0.736047 19.724548 51.780731
vn 2.396783 -4.515159 3.430585
v 7.259515 -14.249463 53.169388
vn 3.096527 0.605877 5.396636
v 11.191631 -1.195802 54.425140
vn -5.125654 -3.220204 1.621361
v -15.816781 -9.269906 44.870201
vn -4.620006 -3.850706 1.659582
v -12.205071 -14.568652 44.750389
vn -4.767052 -3.230108 2.352291
v -12.886344 -11.050907 49.696697
vn -2.136184 -1.767562 0.599895
v -12.820437 -16.819727 35.926422
vn -2.323751 2.118394 5.431874
v -2.240303 10.937134 54.885361
vn -1.182804 1.680033 3.951495
v -0.832889 3.788152 58.373821
vn 1.225991 0.463975 2.797819
v 16.511330 6.190384 50.808376
vn 0.673384 1.571027 5.817820
v -0.169352 2.062286 58.552162
vn -2.462799 1.558295 5.556243
v -6.723310 3.120702 55.832321
vn 2.215982 -5.489537 1.841411
v 7.397696 -19.728836 40.856956
vn -3.224881 1.693799 4.853283
v -1.444970 -0.440689 59.017952
vn -2.848335 0.819556 5.508592
v -12.800191 2.521957 53.083344
vn 0.841784 0.950910 2.866263
v 12.388339 16.827089 49.072701
vn 3.452562 1.204690 4.671701
v 0.086645 7.240403 56.600750
vn -2.433276 -1.688386 0.630378
v -15.622114 -13.108945 35.813560
vn -2.998123 -3.131156 4.304080
v -8.063390 -11.912224 55.030674
vn -1.180804 0.669195 2.826509
v -16.468018 7.646397 50.516193
vn 2.719730 -1.753924 0.664603
v 17.287584 -10.295019 36.456772
vn 0.159813 -0.522130 5.919403
v -0.285666 -6.466272 60.009869
vn -0.240489 -2.588822 0.872348
v -4.238852 -22.161047 35.607952
vn 1.265553 -4.647029 3.736344
v 5.025682 -14.007700 54.650009
vn -0.976606 -2.864270 0.992736
v -7.322672 -21.178261 36.611950
vn -2.053558 1.808253 5.654122
v -11.977956 11.865122 50.988743
vn 1.956738 -2.413524 0.794062
v 10.268795 -19.518175 35.994011
vn 0.362052 -2.797839 0.897865
v 4.831587 -22.060514 35.599762
vn 5.048412 -3.351661 1.572258
v 14.789378 -11.154024 44.394440
vn 1.989742 -4.596320 3.704486
v 5.593555 -14.064565 54.264271
vn 2.545477 -0.911472 2.033918
v 17.530050 -1.244817 49.880642
vn -0.193461 2.048879 5.237100
v -0.738830 10.481833 55.853790
vn 0.743861 -5.738956 2.256053
v 4.782171 -18.761234 45.428020
vn 1.820713 2.068604 5.645084
v 7.210040 13.161735 51.967514
# 116 vertices, 0 vertices normals

f 30//30 96//96 4//4
f 30//30 4//4 53//53
f 53//53 96//96 30//30
f 96//96 32//32 94//94
f 4//4 62//62 53//53
f 96//96 93//93 32//32
f 93//93 91//91 32//32
f 76//76 62//62 4//4
f 4//4 56//56 34//34
f 96//96 94//94 55//55
f 62//62 93//93 53//53
f 34//34 104//104 36//36
f 34//34 56//56 104//104
f 4//4 34//34 76//76
f 56//56 45//45 39//39
f 32//32 67//67 94//94
f 54//54 91//91 93//93
f 62//62 76//76 66//66
f 56//56 39//39 104//104
f 32//32 91//91 67//67
f 54//54 67//67 91//91
f 34//34 17//17 76//76
f 34//34 36//36 33//33
f 55//55 45//45 96//96
f 55//55 74//74 45//45
f 93//93 62//62 54//54
f 67//67 31//31 94//94
f 54//54 99//99 67//67
f 54//54 62//62 99//99
f 62//62 3//3 14//14
f 66//66 3//3 62//62
f 34//34 33//33 17//17
f 36//36 25//25 33//33
f 104//104 12//12 36//36
f 39//39 12//12 104//104
f 94//94 31//31 57//57
f 41//41 66//66 76//76
f 39//39 45//45 2//2
f 57//57 8//8 94//94
f 67//67 44//44 31//31
f 39//39 2//2 12//12
f 55//55 80//80 74//74
f 62//62 14//14 99//99
f 33//33 73//73 17//17
f 74//74 2//2 45//45
f 31//31 44//44 57//57
f 76//76 85//85 41//41
f 33//33 25//25 69//69
f 2//2 5//5 12//12
f 57//57 90//90 8//8
f 66//66 65//65 3//3
f 66//66 41//41 65//65
f 76//76 17//17 85//85
f 25//25 21//21 69//69
f 25//25 12//12 5//5
f 74//74 48//48 2//2
f 80//80 48//48 74//74
f 44//44 114//114 57//57
f 14//14 114//114 44//44
f 44//44 99//99 14//14
f 55//55 94//94 97//97
f 14//14 61//61 114//114
f 73//73 33//33 64//64
f 69//69 64//64 33//33
f 55//55 97//97 80//80
f 8//8 97//97 94//94
f 57//57 114//114 90//90
f 65//65 92//92 3//3
f 90//90 108//108 8//8
f 85//85 65//65 41//41
f 69//69 112//112 64//64
f 69//69 21//21 106//106
f 3//3 92//92 51//51
f 73//73 49//49 17//17
f 69//69 106//106 112//112
f 5//5 81//81 25//25
f 2//2 101//101 5//5
f 3//3 61//61 14//14
f 51//51 116//116 3//3
f 16//16 65//65 85//85
f 64//64 112//112 84//84
f 27//27 101//101 48//48
f 80//80 27//27 48//48
f 77//77 60//60 90//90
f 3//3 116//116 61//61
f 73//73 9//9 49//49
f 73//73 64//64 9//9
f 25//25 81//81 21//21
f 101//101 2//2 48//48
f 8//8 102//102 97//97
f 49//49 16//16 17//17
f 106//106 19//19 112//112
f 50//50 106//106 21//21
f 5//5 101//101 81//81
f 80//80 1//1 27//27
f 17//17 16//16 85//85
f 27//27 40//40 101//101
f 90//90 60//60 10//10
f 61//61 60//60 77//77
f 16//16 59//59 65//65
f 64//64 13//13 9//9
f 84//84 13//13 64//64
f 50//50 19//19 106//106
f 116//116 60//60 61//61
f 49//49 42//42 16//16
f 9//9 38//38 49//49
f 9//9 13//13 38//38
f 112//112 19//19 84//84
f 35//35 50//50 21//21
f 21//21 81//81 35//35
f 101//101 29//29 81//81
f 90//90 63//63 108//108
f 102//102 8//8 108//108
f 65//65 59//59 92//92
f 113//113 59//59 16//16
f 29//29 35//35 81//81
f 80//80 97//97 1//1
f 102//102 15//15 97//97
f 42//42 113//113 16//16
f 49//49 38//38 42//42
f 37//37 23//23 84//84
f 84//84 19//19 37//37
f 29//29 101//101 40//40
f 40//40 26//26 29//29
f 1//1 58//58 27//27
f 97//97 15//15 1//1
f 10//10 63//63 90//90
f 84//84 23//23 13//13
f 27//27 58//58 88//88
f 72//72 102//102 108//108
f 116//116 6//6 60//60
f 51//51 98//98 116//116
f 13//13 23//23 38//38
f 27//27 88//88 40//40
f 42//42 38//38 111//111
f 50//50 115//115 19//19
f 1//1 24//24 58//58
f 23//23 71//71 38//38
f 26//26 11//11 29//29
f 51//51 43//43 98//98
f 111//111 28//28 42//42
f 38//38 71//71 111//111
f 19//19 115//115 37//37
f 29//29 11//11 35//35
f 88//88 58//58 86//86
f 72//72 108//108 63//63
f 98//98 83//83 116//116
f 35//35 11//11 52//52
f 40//40 88//88 26//26
f 10//10 6//6 83//83
f 116//116 83//83 6//6
f 23//23 82//82 71//71
f 50//50 78//78 115//115
f 83//83 63//63 10//10
f 35//35 52//52 78//78
f 88//88 87//87 26//26
f 86//86 87//87 88//88
f 58//58 24//24 86//86
f 115//115 95//95 37//37
f 23//23 37//37 82//82
f 26//26 22//22 11//11
f 111//111 103//103 28//28
f 95//95 82//82 37//37
f 52//52 7//7 78//78
f 11//11 22//22 52//52
f 26//26 87//87 22//22
f 24//24 70//70 86//86
f 22//22 107//107 52//52
f 47//47 100//100 86//86
f 28//28 103//103 75//75
f 78//78 79//79 115//115
f 78//78 7//7 79//79
f 70//70 47//47 86//86
f 52//52 107//107 7//7
f 22//22 68//68 107//107
f 87//87 68//68 22//22
f 86//86 100//100 87//87
f 70//70 20//20 47//47
f 71//71 18//18 111//111
f 82//82 109//109 71//71
f 95//95 109//109 82//82
f 115//115 110//110 95//95
f 79//79 110//110 115//115
f 87//87 100//100 89//89
f 111//111 18//18 103//103
f 71//71 109//109 18//18
f 7//7 107//107 105//105
f 46//46 109//109 95//95
f 95//95 110//110 46//46
f 79//79 7//7 105//105
f 79//79 105//105 110//110
f 87//87 89//89 68//68
f 4//4 96//96 45//45
f 4//4 45//45 56//56
f 96//96 53//53 93//93
f 67//67 99//99 44//44
f 77//77 90//90 114//114
f 10//10 60//60 6//6
f 78//78 50//50 35//35
f 25//25 36//36 12//12
f 114//114 61//61 77//77
# 201 faces, 0 coords texture

# End of File
